<?xml version="1.0" encoding="UTF-8"?>
<svg version="1.1" xmlns="http://www.w3.org/2000/svg" width="225" height="225">
<path d="M0 0 C74.25 0 148.5 0 225 0 C225 74.25 225 148.5 225 225 C150.75 225 76.5 225 0 225 C0 150.75 0 76.5 0 0 Z " fill="#2A2A2A" transform="translate(0,0)"/>
<path d="M0 0 C0.66 0 1.32 0 2 0 C1.91878906 1.20914063 1.83757813 2.41828125 1.75390625 3.6640625 C1.14677396 16.62241772 2.80517768 25.30072084 11.1875 35.71875 C19.46002579 44.56575675 29.50687892 48.30245642 41.52215576 49.28927612 C45.38876818 49.4099854 49.24928379 49.44462717 53.1171875 49.43359375 C54.54623661 49.43817169 55.97528353 49.44348194 57.40432739 49.44947815 C60.38113417 49.45834555 63.35767178 49.45606032 66.33447266 49.44604492 C70.10863952 49.43457051 73.88186849 49.4547751 77.6559124 49.48396206 C80.60232229 49.50250011 83.54851471 49.50199696 86.49496841 49.49632454 C87.88453612 49.49617343 89.27412063 49.50203962 90.66363144 49.51461601 C102.97665197 49.61039198 113.703116 48.03548311 124 41 C124.66 41 125.32 41 126 41 C126.66198985 47.84056177 125.70108734 51.93664502 121.91015625 57.69921875 C117.39175004 63.14163441 111.72069334 66.08162584 105 68 C102.53220017 68.19298029 100.05557207 68.28600559 97.58032227 68.30639648 C96.86226913 68.31472 96.144216 68.32304352 95.40440369 68.33161926 C93.0416817 68.35561381 90.679237 68.36448221 88.31640625 68.37109375 C86.65697658 68.38007435 84.99754766 68.38919642 83.33811951 68.39845276 C79.85893802 68.4149212 76.37985243 68.42263785 72.90063477 68.42553711 C68.48289617 68.43089145 64.0660848 68.46845717 59.6486063 68.51428127 C56.21749252 68.54431889 52.78659374 68.55126653 49.35536003 68.55226326 C47.72934705 68.55641979 46.10333061 68.56866594 44.47744942 68.58978081 C28.17909511 68.78444197 14.35503122 65.58196406 2.01171875 54.16015625 C-6.90939258 44.81877843 -9.58358543 33.72138298 -9.3515625 21.19921875 C-8.91346315 13.10542535 -5.37861549 5.9702632 0 0 Z " fill="#EDECEA" transform="translate(57,115)"/>
<path d="M0 0 C1.59077618 0.00358812 3.18155882 0.0049322 4.77233887 0.00416565 C8.08740742 0.00882626 11.40148845 0.03342362 14.71630859 0.07397461 C18.93226326 0.12494084 23.1471384 0.13641534 27.36336517 0.13413906 C30.6425782 0.13496094 33.92156262 0.15151195 37.20069885 0.17314339 C38.75377176 0.18258401 40.30687012 0.18857713 41.85997009 0.19082451 C59.90688473 0.24555768 75.00763507 3.79580207 88.26171875 16.60546875 C96.6327005 25.56545348 98.93692819 35.44790816 98.703125 47.421875 C98.22131675 55.16397498 94.34393157 62.86585485 89.28125 68.69140625 C88.62125 68.69140625 87.96125 68.69140625 87.28125 68.69140625 C87.33925781 67.53125 87.39726562 66.37109375 87.45703125 65.17578125 C87.8611395 53.61902892 86.8851057 44.28603607 79.53125 34.81640625 C69.71513025 24.52450518 55.65926825 19.75662127 41.69848633 19.40087891 C39.17017864 19.3743367 36.64172447 19.35983896 34.11328125 19.35546875 C32.7472063 19.34902241 31.38113267 19.34229278 30.01506042 19.33529663 C27.16161914 19.32338322 24.30829835 19.31960947 21.45483398 19.32080078 C17.83866966 19.32100328 14.22329731 19.29374739 10.60731983 19.25925636 C7.78702916 19.23676693 4.9669222 19.23296993 2.14655113 19.23402023 C0.17827367 19.23058227 -1.78994647 19.20905964 -3.75810242 19.18692017 C-13.29483974 19.2345826 -23.10297925 20.30545425 -31.43034363 25.32632446 C-33.71875 26.69140625 -33.71875 26.69140625 -36.71875 26.69140625 C-37.53607624 19.33547008 -35.30235744 14.48622602 -30.71875 8.69140625 C-30.05875 8.69140625 -29.39875 8.69140625 -28.71875 8.69140625 C-28.71875 8.03140625 -28.71875 7.37140625 -28.71875 6.69140625 C-19.15853171 0.64623946 -10.92640834 -0.16488451 0 0 Z " fill="#EEEDEA" transform="translate(78.71875,41.30859375)"/>
<path d="M0 0 C0.66 0 1.32 0 2 0 C2.10957031 0.86882812 2.21914062 1.73765625 2.33203125 2.6328125 C3.47182516 11.19262967 3.47182516 11.19262967 7 19 C7.309375 19.7425 7.61875 20.485 7.9375 21.25 C9.34120604 23.56198643 10.49583949 23.98479979 13 25 C13.98887207 25.50466797 14.97774414 26.00933594 15.99658203 26.52929688 C20.71085269 28.54013334 25.30559145 28.46766383 30.3671875 28.46875 C31.36017853 28.47636353 32.35316956 28.48397705 33.37625122 28.49182129 C35.47574361 28.50259604 37.57528949 28.50548611 39.67480469 28.50097656 C42.8310334 28.50001342 45.98475241 28.54147467 49.140625 28.5859375 C68.84478071 28.70222859 85.67804561 25.43161363 100.30859375 11.3203125 C102 10 102 10 105 10 C105.10890711 13.00099588 105.18773555 15.99796378 105.25 19 C105.28351563 19.83917969 105.31703125 20.67835937 105.3515625 21.54296875 C105.46755222 29.02430547 103.50905674 34.09477641 98.625 39.75 C88.77738714 48.19081102 79.8021371 48.31506931 67.31640625 48.30078125 C65.89208351 48.30467632 64.46776191 48.30901264 63.04344177 48.31376648 C60.06888043 48.32119555 57.09443786 48.32096143 54.11987305 48.31567383 C50.32956814 48.30988043 46.5397521 48.32682279 42.74952793 48.3500185 C39.81106275 48.36483038 36.87271336 48.36561753 33.93421745 48.36250877 C32.53772958 48.36301815 31.14123457 48.36818282 29.7447834 48.37832069 C17.85000894 48.45409775 8.22450887 46.97069213 -1 39 C-6.46423058 32.33922257 -8.48308426 25.36192356 -8.3203125 16.81640625 C-7.58711434 10.36962731 -4.49583618 4.64569739 0 0 Z " fill="#ECEBE8" transform="translate(78,107)"/>
<path d="M0 0 C1.34462239 -0.00457594 2.68924246 -0.00988563 4.03385925 -0.0158844 C6.83850665 -0.02476363 9.64286854 -0.02245374 12.44750977 -0.01245117 C16.00438038 -0.00098885 19.56025403 -0.02115614 23.1169939 -0.05036831 C25.89094589 -0.06890613 28.66466687 -0.06840306 31.43866539 -0.06273079 C33.37538755 -0.06250717 35.3120886 -0.07924403 37.24873352 -0.09654236 C48.81452986 -0.00672806 60.44026845 1.97516095 68.91796875 10.43359375 C75.89482129 18.49675447 76.58929186 24.82429101 75.91796875 35.43359375 C74.83103805 40.14096273 72.26705598 43.97984754 68.91796875 47.43359375 C67.92796875 47.43359375 66.93796875 47.43359375 65.91796875 47.43359375 C65.90378906 46.73234375 65.88960938 46.03109375 65.875 45.30859375 C65.46111029 37.07554448 63.49679707 32.01242207 57.66796875 26.18359375 C50.43228866 21.57907006 44.27664201 19.82459343 35.72265625 19.90234375 C34.77214386 19.89851685 33.82163147 19.89468994 32.84231567 19.89074707 C30.8405043 19.88804017 28.83865682 19.89531515 26.83691406 19.91210938 C23.82143295 19.93339285 20.80837332 19.91233983 17.79296875 19.88671875 C-1.46432272 19.85852505 -17.94769911 22.89731919 -32.20703125 36.89453125 C-34.08203125 38.43359375 -34.08203125 38.43359375 -37.08203125 38.43359375 C-38.05892134 17.09397249 -38.05892134 17.09397249 -32.08203125 10.43359375 C-31.50066406 9.78132813 -30.91929688 9.1290625 -30.3203125 8.45703125 C-21.85851324 0.11537924 -11.33915467 -0.02633976 0 0 Z " fill="#ECEBE9" transform="translate(79.08203125,69.56640625)"/>
<path d="M0 0 C0.33 0 0.66 0 1 0 C1 15.84 1 31.68 1 48 C-15.17 48 -31.34 48 -48 48 C-44.27517741 46.1375887 -40.84980548 45.00820637 -36.875 43.8125 C-30.7985951 41.90125354 -26.01355176 39.41196226 -20.953125 35.453125 C-19 34 -19 34 -16 33 C-16 32.34 -16 31.68 -16 31 C-15.34 31 -14.68 31 -14 31 C-13.74992187 30.46117187 -13.49984375 29.92234375 -13.2421875 29.3671875 C-11.72717154 26.48008161 -9.92264094 23.84520383 -8.125 21.125 C-3.83690766 14.43018675 -1.76984336 7.76635212 0 0 Z " fill="#FAFAFA" transform="translate(224,177)"/>
<path d="M0 0 C1.85705489 3.71410978 2.95169753 7.09542486 4.125 11.0625 C6.16112108 17.60734622 9.08391635 22.55663594 13.42578125 27.92578125 C15 30 15 30 15 32 C15.57234375 32.26039063 16.1446875 32.52078125 16.734375 32.7890625 C19.17434058 34.09318203 21.11611279 35.6172296 23.25 37.375 C31.01013456 43.4569266 38.39331884 45.88653014 48 48 C48 48.33 48 48.66 48 49 C32.16 49 16.32 49 0 49 C0 32.83 0 16.66 0 0 Z " fill="#FAF9F9" transform="translate(0,176)"/>
<path d="M0 0 C15.84 0 31.68 0 48 0 C48 16.17 48 32.34 48 49 C47.67 49 47.34 49 47 49 C46.85304687 48.18917969 46.70609375 47.37835938 46.5546875 46.54296875 C44.28919233 35.35871385 40.2482879 26.81261143 32.3203125 18.55859375 C31 17 31 17 31 15 C30.46117187 14.74992188 29.92234375 14.49984375 29.3671875 14.2421875 C26.48008161 12.72717154 23.84520383 10.92264094 21.125 9.125 C14.43018675 4.83690766 7.76635212 2.76984336 0 1 C0 0.67 0 0.34 0 0 Z " fill="#FAFAF9" transform="translate(177,0)"/>
<path d="M0 0 C16.17 0 32.34 0 49 0 C45.71008164 1.64495918 43.31269541 2.48922172 39.8125 3.3125 C31.24586679 5.6022517 25.03586781 9.57409697 18.62890625 15.64453125 C17 17 17 17 15 17 C14.72929687 17.57492188 14.45859375 18.14984375 14.1796875 18.7421875 C12.98534811 21.02804236 11.62010695 23.02565294 10.125 25.125 C5.36921746 32.189077 2.83585064 39.73867214 1 48 C0.67 48 0.34 48 0 48 C0 32.16 0 16.32 0 0 Z " fill="#FBFBFB" transform="translate(0,0)"/>
<path d="M0 0 C0.33 0 0.66 0 1 0 C1.390625 5.859375 1.390625 5.859375 1 8 C-0.32 9.32 -1.64 10.64 -3 12 C-2.01 8.04 -1.02 4.08 0 0 Z " fill="#D0CFCE" transform="translate(224,177)"/>
</svg>
